<svg width="122" height="114" viewBox="0 0 122 114" fill="none" xmlns="http://www.w3.org/2000/svg">
    <path
        d="M0.652932 19.251C0.479793 17.9364 0.835972 16.6068 1.64312 15.5547C2.45027 14.5026 3.64227 13.8143 4.95693 13.641L103.616 0.653046C104.93 0.480194 106.26 0.836506 107.312 1.64363C108.363 2.45075 109.052 3.64259 109.225 4.95705L120.973 94.187C121.059 94.8381 121.015 95.4996 120.845 96.1339C120.675 96.7682 120.382 97.3628 119.982 97.8837C119.583 98.4046 119.084 98.8418 118.515 99.17C117.947 99.4983 117.319 99.7114 116.668 99.797L18.0099 112.786C17.3589 112.872 16.6974 112.828 16.0631 112.658C15.4288 112.488 14.8342 112.195 14.3133 111.796C13.7923 111.396 13.3552 110.897 13.0269 110.329C12.6986 109.76 12.4856 109.132 12.3999 108.481L0.652932 19.251Z"
        fill="#1A1A1A" />
    <path
        d="M33.4881 62.596V82H21.3201V29.548H38.3841C42.1761 29.548 45.4041 29.944 48.0681 30.736C50.7561 31.504 52.9401 32.584 54.6201 33.976C56.3241 35.368 57.5601 37.012 58.3281 38.908C59.0961 40.804 59.4801 42.868 59.4801 45.1C59.4801 46.804 59.2521 48.412 58.7961 49.924C58.3433 51.4293 57.6504 52.8516 56.7441 54.136C55.8561 55.408 54.7521 56.548 53.4321 57.556C52.1361 58.564 50.6361 59.392 48.9321 60.04C49.7481 60.448 50.5041 60.952 51.2001 61.552C51.9201 62.152 52.5441 62.884 53.0721 63.748L64.2321 82H53.2161C51.1761 82 49.7121 81.232 48.8241 79.696L40.1121 64.468C39.7281 63.796 39.2721 63.316 38.7441 63.028C38.2401 62.74 37.5201 62.596 36.5841 62.596H33.4881ZM33.4881 54.208H38.3841C40.0401 54.208 41.4441 54.004 42.5961 53.596C43.7721 53.164 44.7321 52.576 45.4761 51.832C46.2094 51.105 46.764 50.2177 47.0961 49.24C47.4321 48.232 47.6001 47.152 47.6001 46C47.6001 43.696 46.8441 41.896 45.3321 40.6C43.8441 39.304 41.5281 38.656 38.3841 38.656H33.4881V54.208ZM85.1871 44.092C87.6591 44.092 89.9151 44.476 91.9551 45.244C94.0191 46.012 95.7831 47.128 97.2471 48.592C98.7351 50.056 99.8871 51.856 100.703 53.992C101.543 56.104 101.963 58.504 101.963 61.192C101.963 62.032 101.927 62.716 101.855 63.244C101.783 63.772 101.651 64.192 101.459 64.504C101.279 64.8061 100.999 65.0355 100.667 65.152C100.355 65.272 99.9471 65.332 99.4431 65.332H77.9151C78.2751 68.452 79.2231 70.72 80.7591 72.136C82.2951 73.528 84.2751 74.224 86.6991 74.224C87.9951 74.224 89.1111 74.068 90.0471 73.756C90.9831 73.444 91.8111 73.096 92.5311 72.712C93.2751 72.328 93.9471 71.98 94.5471 71.668C95.1492 71.3612 95.8153 71.2009 96.4911 71.2C97.3791 71.2 98.0511 71.524 98.5071 72.172L101.747 76.168C100.595 77.488 99.3471 78.568 98.0031 79.408C96.7133 80.2097 95.3364 80.8619 93.8991 81.352C92.5296 81.803 91.1186 82.1165 89.6871 82.288C88.3632 82.4751 87.0281 82.5713 85.6911 82.576C83.0751 82.576 80.6151 82.156 78.3111 81.316C76.0648 80.4734 74.0176 79.174 72.2991 77.5C70.5951 75.82 69.2391 73.732 68.2311 71.236C67.2471 68.74 66.7551 65.836 66.7551 62.524C66.7551 60.028 67.1751 57.664 68.0151 55.432C68.8791 53.2 70.1031 51.244 71.6871 49.564C73.2951 47.884 75.2271 46.552 77.4831 45.568C79.7631 44.584 82.3311 44.092 85.1871 44.092ZM85.4031 51.796C83.2671 51.796 81.5991 52.408 80.3991 53.632C79.1991 54.832 78.4071 56.572 78.0231 58.852H91.9551C91.9551 57.964 91.8351 57.1 91.5951 56.26C91.3908 55.4433 91.0098 54.6814 90.4791 54.028C89.9751 53.356 89.3031 52.816 88.4631 52.408C87.6231 52 86.6031 51.796 85.4031 51.796Z"
        fill="white" />
</svg>